#!OML:ASF F:\VICON\USERDATA\INSTALL\rory3\rory3.ASF
:FULLY-SPECIFIED
:DEGREES
676
root -1.03305 29.7558 -9.56123 -177.905 -117.98 177.087
lowerback 9.26547 2.10767 -5.48555
upperback 1.47892 2.06598 -2.87015
thorax -3.74608 1.04722 -0.158806
lowerneck -7.90792 1.67404 -5.68308
upperneck 14.2605 2.12703 5.74756
head 5.45935 1.10877 2.88535
rclavicle -5.20816e-014 2.38542e-014
rhumerus -32.2474 3.97554 -84.0999
rradius 36.0665
rwrist 14.1264
rhand -23.9352 8.30608
rfingers 7.12502
rthumb 2.53997 -21.6585
lclavicle -5.20816e-014 2.38542e-014
lhumerus -26.0953 12.5417 75.0839
lradius 27.0309
lwrist 2.09051
lhand -24.7073 24.2086
lfingers 7.12502
lthumb 1.79428 54.1808
rfemur -16.958 23.1981 18.5138
rtibia 35.6929
rfoot -21.4182 -2.16532
rtoes -16.6139
lfemur -12.6254 -3.08107 -20.2086
ltibia 29.5945
lfoot -15.3657 -11.8357
ltoes -7.12214
677
root -1.06178 29.7589 -9.58248 -177.812 -118.937 177.008
lowerback 9.34872 2.08154 -5.47351
upperback 1.48653 2.02957 -2.82596
thorax -3.78414 1.03046 -0.1177
lowerneck -8.27742 1.75202 -5.05161
upperneck 14.8635 2.26882 4.91638
head 5.72364 1.15129 2.54399
rclavicle 3.26007e-014 -1.59028e-014
rhumerus -32.1305 4.07191 -84.049
rradius 36.1041
rwrist 14.3762
rhand -23.9835 7.96417
rfingers 7.12502
rthumb 2.49331 -22.001
lclavicle 3.26007e-014 -1.59028e-014
lhumerus -26.0889 12.8989 74.878
lradius 27.096
lwrist 2.55126
lhand -24.1707 24.1889
lfingers 7.12502
lthumb 2.31251 54.1562
rfemur -16.9618 23.6763 18.5858
rtibia 35.4477
rfoot -21.4104 -1.4715
rtoes -17.0112
lfemur -12.6769 -3.41612 -20.0102
ltibia 29.5146
lfoot -15.1358 -12.3204
ltoes -7.38021
678
root -1.09251 29.7636 -9.60048 -177.651 -119.908 176.852
lowerback 9.3802 2.03444 -5.33584
upperback 1.48881 1.98069 -2.81858
thorax -3.79287 1.00547 -0.181349
lowerneck -8.31985 1.73628 -5.18966
upperneck 15.1407 2.24779 5.0012
head 5.8157 1.13726 2.59769
rclavicle 6.63941e-014 4.77083e-015
rhumerus -32.1306 4.32031 -84.1448
rradius 36.3122
rwrist 14.2844
rhand -24.2944 6.69923
rfingers 7.12502
rthumb 2.19307 -23.2692
lclavicle 6.63941e-014 4.77083e-015
lhumerus -26.0534 13.2919 74.5155
lradius 27.213
lwrist 3.53155
lhand -22.7167 24.7062
lfingers 7.12502
lthumb 3.71669 54.6536
rfemur -16.9332 24.0622 18.7045
rtibia 35.2235
rfoot -21.3197 -0.675046
rtoes -15.4123
lfemur -12.7189 -3.89261 -19.772
ltibia 29.4369
lfoot -14.9169 -12.7123
ltoes -7.52171
679
root -1.12229 29.7684 -9.61837 -177.868 -120.845 177.171
lowerback 9.36183 2.02368 -5.44201
upperback 1.52116 1.957 -2.8548
thorax -3.75026 0.993598 -0.155417
lowerneck -8.43391 1.58632 -5.98508
upperneck 15.3585 2.02258 5.87164
head 5.89366 1.04732 2.99643
rclavicle -3.02153e-014 -1.59028e-015
rhumerus -31.936 4.43268 -84.1597
rradius 36.3424
rwrist 14.0327
rhand -24.6888 5.23508
rfingers 7.12502
rthumb 1.81217 -24.737
lclavicle -3.02153e-014 -1.59028e-015
lhumerus -25.9367 13.4197 74.3692
lradius 27.1571
lwrist 3.88756
lhand -21.9335 25.484
lfingers 7.12502
lthumb 4.47296 55.4167
rfemur -16.943 24.3513 18.5512
rtibia 35.0351
rfoot -21.2245 0.208042
rtoes -13.7666
lfemur -12.7779 -4.51639 -19.821
ltibia 29.3663
lfoot -14.8633 -12.8802
ltoes -8.16634
680
root -1.15099 29.773 -9.63855 -178.056 -121.846 177.545
lowerback 9.31176 1.98472 -5.58297
upperback 1.51349 1.89239 -2.91399
thorax -3.7305 0.962825 -0.128702
lowerneck -8.26078 1.53948 -6.28472
upperneck 15.3357 1.93206 6.25964
head 5.85296 1.01319 3.16065
rclavicle 5.38706e-014 -3.97569e-014
rhumerus -31.7471 4.43273 -84.1515
rradius 36.2962
rwrist 13.9186
rhand -24.8217 4.66717
rfingers 7.12502
rthumb 1.68373 -25.3059
lclavicle 5.38706e-014 -3.97569e-014
lhumerus -25.8611 13.3754 74.2778
lradius 26.8672
lwrist 3.23644
lhand -21.9931 25.7621
lfingers 7.12502
lthumb 4.41546 55.696
rfemur -17.0194 24.5252 18.3579
rtibia 34.867
rfoot -21.1548 1.08682
rtoes -14.0576
lfemur -12.9424 -5.25327 -19.8994
ltibia 29.313
lfoot -14.9299 -12.9915
ltoes -9.25075
681
root -1.18017 29.7742 -9.65688 -177.973 -122.928 177.529
lowerback 9.31486 1.89437 -5.45265
upperback 1.52292 1.78556 -2.95202
thorax -3.71285 0.908309 -0.22693
lowerneck -7.89592 1.62386 -6.1826
upperneck 15.1504 2.01844 6.25551
head 5.72715 1.05709 3.13879
rclavicle -3.77691e-015 6.04305e-014
rhumerus -31.6548 4.49419 -84.1922
rradius 36.4333
rwrist 13.9723
rhand -24.7953 4.47835
rfingers 7.12502
rthumb 1.70927 -25.4946
lclavicle -3.77691e-015 6.04305e-014
lhumerus -25.7486 13.2352 74.1242
lradius 26.5102
lwrist 2.79387
lhand -22.1707 25.7477
lfingers 7.12502
lthumb 4.24391 55.6852
rfemur -16.9702 24.676 18.4628
rtibia 34.715
rfoot -21.0698 1.47156
rtoes -15.0049
lfemur -13.0838 -5.80352 -19.7371
ltibia 29.2839
lfoot -14.8176 -13.3723
ltoes -9.86361
